<svg xmlns="http://www.w3.org/2000/svg" xmlns:xlink="http://www.w3.org/1999/xlink" width="400" zoomAndPan="magnify" viewBox="0 0 375 374.999991" height="400" preserveAspectRatio="xMidYMid meet" version="1.0"><defs><g/></defs><g fill="#e1dcd9" fill-opacity="1"><g transform="translate(49.633397, 198.710113)"><g><path d="M 24.53125 -42.25 L 41.578125 0 L 31.234375 0 L 28.109375 -8.453125 L 12.03125 -8.453125 L 8.90625 0 L -1.4375 0 L 15.609375 -42.25 Z M 24.828125 -16.890625 L 20.125 -29.1875 L 20.015625 -29.1875 L 15.3125 -16.890625 Z M 24.828125 -16.890625 "/></g></g></g><g fill="#e1dcd9" fill-opacity="1"><g transform="translate(84.95948, 198.710113)"><g><path d="M 4.859375 -3.25 C 2.398438 -5.925781 1.171875 -9.207031 1.171875 -13.09375 C 1.171875 -16.988281 2.398438 -20.285156 4.859375 -22.984375 C 7.316406 -25.679688 10.441406 -27.03125 14.234375 -27.03125 C 17.710938 -27.03125 20.582031 -25.941406 22.84375 -23.765625 L 22.84375 -44.03125 L 31.90625 -44.03125 L 31.90625 0 L 22.9375 0 L 22.9375 -2.96875 L 22.84375 -2.96875 C 20.582031 -0.476562 17.710938 0.765625 14.234375 0.765625 C 10.441406 0.765625 7.316406 -0.570312 4.859375 -3.25 Z M 12.5625 -17.5625 C 11.382812 -16.40625 10.796875 -14.921875 10.796875 -13.109375 C 10.796875 -11.296875 11.359375 -9.816406 12.484375 -8.671875 C 13.617188 -7.535156 15.109375 -6.96875 16.953125 -6.96875 C 18.722656 -6.96875 20.179688 -7.546875 21.328125 -8.703125 C 22.472656 -9.867188 23.046875 -11.335938 23.046875 -13.109375 C 23.046875 -14.921875 22.457031 -16.40625 21.28125 -17.5625 C 20.101562 -18.71875 18.660156 -19.296875 16.953125 -19.296875 C 15.210938 -19.296875 13.75 -18.71875 12.5625 -17.5625 Z M 12.5625 -17.5625 "/></g></g></g><g fill="#e1dcd9" fill-opacity="1"><g transform="translate(115.114437, 198.710113)"><g><path d="M 16.28125 0 L -1.4375 -42.25 L 9.421875 -42.25 L 20.078125 -14.484375 L 30.71875 -42.25 L 41.578125 -42.25 L 23.859375 0 Z M 16.28125 0 "/></g></g></g><g fill="#e1dcd9" fill-opacity="1"><g transform="translate(150.440527, 198.710113)"><g><path d="M 4.859375 -3.25 C 2.398438 -5.925781 1.171875 -9.207031 1.171875 -13.09375 C 1.171875 -16.988281 2.398438 -20.285156 4.859375 -22.984375 C 7.316406 -25.679688 10.441406 -27.03125 14.234375 -27.03125 C 17.710938 -27.03125 20.582031 -25.941406 22.84375 -23.765625 L 22.84375 -26.265625 L 31.90625 -26.265625 L 31.90625 0 L 22.9375 0 L 22.9375 -2.96875 L 22.84375 -2.96875 C 20.582031 -0.476562 17.710938 0.765625 14.234375 0.765625 C 10.441406 0.765625 7.316406 -0.570312 4.859375 -3.25 Z M 12.5625 -17.5625 C 11.382812 -16.40625 10.796875 -14.921875 10.796875 -13.109375 C 10.796875 -11.296875 11.359375 -9.816406 12.484375 -8.671875 C 13.617188 -7.535156 15.109375 -6.96875 16.953125 -6.96875 C 18.722656 -6.96875 20.179688 -7.546875 21.328125 -8.703125 C 22.472656 -9.867188 23.046875 -11.335938 23.046875 -13.109375 C 23.046875 -14.921875 22.457031 -16.40625 21.28125 -17.5625 C 20.101562 -18.71875 18.660156 -19.296875 16.953125 -19.296875 C 15.210938 -19.296875 13.75 -18.71875 12.5625 -17.5625 Z M 12.5625 -17.5625 "/></g></g></g><g fill="#e1dcd9" fill-opacity="1"><g transform="translate(180.595478, 198.710113)"><g><path d="M 3.078125 0 L 3.078125 -26.265625 L 12.140625 -26.265625 L 12.140625 -23.5 L 12.234375 -23.5 C 14.585938 -25.851562 17.097656 -27.03125 19.765625 -27.03125 C 21.054688 -27.03125 22.34375 -26.859375 23.625 -26.515625 C 24.90625 -26.179688 26.132812 -25.65625 27.3125 -24.9375 C 28.488281 -24.21875 29.441406 -23.203125 30.171875 -21.890625 C 30.910156 -20.578125 31.28125 -19.050781 31.28125 -17.3125 L 31.28125 0 L 22.21875 0 L 22.21875 -14.84375 C 22.21875 -16.207031 21.78125 -17.398438 20.90625 -18.421875 C 20.039062 -19.453125 18.910156 -19.96875 17.515625 -19.96875 C 16.148438 -19.96875 14.910156 -19.4375 13.796875 -18.375 C 12.691406 -17.320312 12.140625 -16.144531 12.140625 -14.84375 L 12.140625 0 Z M 3.078125 0 "/></g></g></g><g fill="#e1dcd9" fill-opacity="1"><g transform="translate(209.624056, 198.710113)"><g><path d="M 4.609375 -26.265625 L 4.609375 -36.046875 L 13.671875 -36.046875 L 13.671875 -26.265625 L 19.203125 -26.265625 L 19.203125 -19.359375 L 13.671875 -19.359375 L 13.671875 -11.015625 C 13.671875 -8.585938 14.351562 -7.375 15.71875 -7.375 C 16.0625 -7.375 16.421875 -7.441406 16.796875 -7.578125 C 17.171875 -7.710938 17.460938 -7.847656 17.671875 -7.984375 L 17.96875 -8.1875 L 20.21875 -0.875 C 18.28125 0.21875 16.0625 0.765625 13.5625 0.765625 C 11.863281 0.765625 10.398438 0.46875 9.171875 -0.125 C 7.941406 -0.726562 7.007812 -1.53125 6.375 -2.53125 C 5.738281 -3.539062 5.285156 -4.597656 5.015625 -5.703125 C 4.742188 -6.816406 4.609375 -8.003906 4.609375 -9.265625 L 4.609375 -19.359375 L 0.8125 -19.359375 L 0.8125 -26.265625 Z M 4.609375 -26.265625 "/></g></g></g><g fill="#e1dcd9" fill-opacity="1"><g transform="translate(225.033616, 198.710113)"><g><path d="M 4.859375 -3.25 C 2.398438 -5.925781 1.171875 -9.207031 1.171875 -13.09375 C 1.171875 -16.988281 2.398438 -20.285156 4.859375 -22.984375 C 7.316406 -25.679688 10.441406 -27.03125 14.234375 -27.03125 C 17.710938 -27.03125 20.582031 -25.941406 22.84375 -23.765625 L 22.84375 -26.265625 L 31.90625 -26.265625 L 31.90625 0 L 22.9375 0 L 22.9375 -2.96875 L 22.84375 -2.96875 C 20.582031 -0.476562 17.710938 0.765625 14.234375 0.765625 C 10.441406 0.765625 7.316406 -0.570312 4.859375 -3.25 Z M 12.5625 -17.5625 C 11.382812 -16.40625 10.796875 -14.921875 10.796875 -13.109375 C 10.796875 -11.296875 11.359375 -9.816406 12.484375 -8.671875 C 13.617188 -7.535156 15.109375 -6.96875 16.953125 -6.96875 C 18.722656 -6.96875 20.179688 -7.546875 21.328125 -8.703125 C 22.472656 -9.867188 23.046875 -11.335938 23.046875 -13.109375 C 23.046875 -14.921875 22.457031 -16.40625 21.28125 -17.5625 C 20.101562 -18.71875 18.660156 -19.296875 16.953125 -19.296875 C 15.210938 -19.296875 13.75 -18.71875 12.5625 -17.5625 Z M 12.5625 -17.5625 "/></g></g></g><g fill="#e1dcd9" fill-opacity="1"><g transform="translate(255.188567, 198.710113)"><g><path d="M 1.890625 6.453125 L 9.3125 2.8125 C 10.675781 5.070312 13.050781 6.203125 16.4375 6.203125 C 18.007812 6.203125 19.46875 5.695312 20.8125 4.6875 C 22.164062 3.675781 22.84375 2.128906 22.84375 0.046875 L 22.84375 -1.890625 C 21.238281 -0.117188 18.367188 0.765625 14.234375 0.765625 C 10.441406 0.765625 7.316406 -0.570312 4.859375 -3.25 C 2.398438 -5.925781 1.171875 -9.207031 1.171875 -13.09375 C 1.171875 -16.988281 2.398438 -20.285156 4.859375 -22.984375 C 7.316406 -25.679688 10.441406 -27.03125 14.234375 -27.03125 C 17.609375 -27.03125 20.425781 -25.988281 22.6875 -23.90625 L 22.84375 -23.90625 L 22.84375 -26.265625 L 31.90625 -26.265625 L 31.90625 0.71875 C 31.90625 4.988281 30.488281 8.28125 27.65625 10.59375 C 24.820312 12.914062 21.082031 14.078125 16.4375 14.078125 C 8.925781 14.078125 4.078125 11.535156 1.890625 6.453125 Z M 12.5625 -17.5625 C 11.382812 -16.40625 10.796875 -14.921875 10.796875 -13.109375 C 10.796875 -11.296875 11.359375 -9.816406 12.484375 -8.671875 C 13.617188 -7.535156 15.109375 -6.96875 16.953125 -6.96875 C 18.722656 -6.96875 20.179688 -7.546875 21.328125 -8.703125 C 22.472656 -9.867188 23.046875 -11.335938 23.046875 -13.109375 C 23.046875 -14.921875 22.457031 -16.40625 21.28125 -17.5625 C 20.101562 -18.71875 18.660156 -19.296875 16.953125 -19.296875 C 15.210938 -19.296875 13.75 -18.71875 12.5625 -17.5625 Z M 12.5625 -17.5625 "/></g></g></g><g fill="#e1dcd9" fill-opacity="1"><g transform="translate(285.343518, 198.710113)"><g><path d="M 29.640625 -11.875 L 10.59375 -11.875 C 10.59375 -10.03125 11.191406 -8.664062 12.390625 -7.78125 C 13.585938 -6.894531 14.882812 -6.453125 16.28125 -6.453125 C 17.75 -6.453125 18.910156 -6.644531 19.765625 -7.03125 C 20.617188 -7.425781 21.59375 -8.207031 22.6875 -9.375 L 29.234375 -6.09375 C 26.503906 -1.519531 21.960938 0.765625 15.609375 0.765625 C 11.648438 0.765625 8.253906 -0.585938 5.421875 -3.296875 C 2.585938 -6.015625 1.171875 -9.285156 1.171875 -13.109375 C 1.171875 -16.929688 2.585938 -20.207031 5.421875 -22.9375 C 8.253906 -25.664062 11.648438 -27.03125 15.609375 -27.03125 C 19.773438 -27.03125 23.164062 -25.828125 25.78125 -23.421875 C 28.394531 -21.015625 29.703125 -17.578125 29.703125 -13.109375 C 29.703125 -12.492188 29.679688 -12.082031 29.640625 -11.875 Z M 10.859375 -16.890625 L 20.84375 -16.890625 C 20.632812 -18.253906 20.09375 -19.300781 19.21875 -20.03125 C 18.351562 -20.769531 17.238281 -21.140625 15.875 -21.140625 C 14.375 -21.140625 13.175781 -20.75 12.28125 -19.96875 C 11.394531 -19.1875 10.921875 -18.160156 10.859375 -16.890625 Z M 10.859375 -16.890625 "/></g></g></g><g fill="#e1dcd9" fill-opacity="1"><g transform="translate(311.395098, 198.710113)"><g/></g></g><g fill="#e1dcd9" fill-opacity="1"><g transform="translate(170.721571, 212.619406)"><g><path d="M 6.25 -7.21875 C 6.382812 -7.21875 6.488281 -7.175781 6.5625 -7.09375 C 6.644531 -7.007812 6.6875 -6.898438 6.6875 -6.765625 L 6.6875 -0.5 C 6.6875 -0.351562 6.640625 -0.234375 6.546875 -0.140625 C 6.460938 -0.046875 6.347656 0 6.203125 0 C 6.117188 0 6.039062 -0.0078125 5.96875 -0.03125 C 5.90625 -0.0625 5.851562 -0.0976562 5.8125 -0.140625 L 1.75 -5.421875 L 1.75 -0.453125 C 1.75 -0.328125 1.707031 -0.21875 1.625 -0.125 C 1.539062 -0.0390625 1.429688 0 1.296875 0 C 1.171875 0 1.066406 -0.0390625 0.984375 -0.125 C 0.898438 -0.21875 0.859375 -0.328125 0.859375 -0.453125 L 0.859375 -6.71875 C 0.859375 -6.863281 0.90625 -6.984375 1 -7.078125 C 1.09375 -7.171875 1.207031 -7.21875 1.34375 -7.21875 C 1.425781 -7.21875 1.503906 -7.203125 1.578125 -7.171875 C 1.648438 -7.140625 1.707031 -7.097656 1.75 -7.046875 L 5.796875 -1.75 L 5.796875 -6.765625 C 5.796875 -6.898438 5.835938 -7.007812 5.921875 -7.09375 C 6.003906 -7.175781 6.113281 -7.21875 6.25 -7.21875 Z M 6.25 -7.21875 "/></g></g></g><g fill="#e1dcd9" fill-opacity="1"><g transform="translate(184.981956, 212.619406)"><g><path d="M 5.8125 -6.75 C 5.8125 -6.644531 5.78125 -6.546875 5.71875 -6.453125 L 3.5 -3.328125 L 3.5 -0.5 C 3.5 -0.351562 3.453125 -0.234375 3.359375 -0.140625 C 3.273438 -0.046875 3.164062 0 3.03125 0 C 2.894531 0 2.773438 -0.046875 2.671875 -0.140625 C 2.578125 -0.234375 2.53125 -0.351562 2.53125 -0.5 L 2.53125 -3.40625 L 0.328125 -6.390625 C 0.234375 -6.503906 0.1875 -6.625 0.1875 -6.75 C 0.1875 -6.894531 0.238281 -7.015625 0.34375 -7.109375 C 0.457031 -7.203125 0.582031 -7.25 0.71875 -7.25 C 0.875 -7.25 1.003906 -7.171875 1.109375 -7.015625 L 3.046875 -4.34375 L 4.921875 -7.015625 C 5.023438 -7.171875 5.160156 -7.25 5.328125 -7.25 C 5.460938 -7.25 5.578125 -7.203125 5.671875 -7.109375 C 5.765625 -7.015625 5.8125 -6.894531 5.8125 -6.75 Z M 5.8125 -6.75 "/></g></g></g><g fill="#e1dcd9" fill-opacity="1"><g transform="translate(197.686917, 212.619406)"><g><path d="M 6 -6.796875 C 6.164062 -6.703125 6.25 -6.566406 6.25 -6.390625 C 6.25 -6.265625 6.207031 -6.148438 6.125 -6.046875 C 6.039062 -5.929688 5.925781 -5.875 5.78125 -5.875 C 5.6875 -5.875 5.59375 -5.898438 5.5 -5.953125 C 5.082031 -6.191406 4.625 -6.3125 4.125 -6.3125 C 3.613281 -6.3125 3.160156 -6.195312 2.765625 -5.96875 C 2.367188 -5.738281 2.054688 -5.421875 1.828125 -5.015625 C 1.609375 -4.609375 1.5 -4.140625 1.5 -3.609375 C 1.5 -3.035156 1.613281 -2.539062 1.84375 -2.125 C 2.070312 -1.71875 2.382812 -1.40625 2.78125 -1.1875 C 3.175781 -0.96875 3.625 -0.859375 4.125 -0.859375 C 4.632812 -0.859375 5.09375 -0.984375 5.5 -1.234375 C 5.582031 -1.273438 5.675781 -1.296875 5.78125 -1.296875 C 5.925781 -1.296875 6.046875 -1.238281 6.140625 -1.125 C 6.222656 -1.019531 6.265625 -0.910156 6.265625 -0.796875 C 6.265625 -0.710938 6.238281 -0.632812 6.1875 -0.5625 C 6.144531 -0.488281 6.085938 -0.429688 6.015625 -0.390625 C 5.742188 -0.242188 5.441406 -0.125 5.109375 -0.03125 C 4.773438 0.0625 4.445312 0.109375 4.125 0.109375 C 3.457031 0.109375 2.84375 -0.0351562 2.28125 -0.328125 C 1.71875 -0.628906 1.269531 -1.0625 0.9375 -1.625 C 0.601562 -2.1875 0.4375 -2.847656 0.4375 -3.609375 C 0.4375 -4.304688 0.597656 -4.929688 0.921875 -5.484375 C 1.242188 -6.046875 1.679688 -6.488281 2.234375 -6.8125 C 2.796875 -7.132812 3.425781 -7.296875 4.125 -7.296875 C 4.789062 -7.296875 5.414062 -7.128906 6 -6.796875 Z M 6 -6.796875 "/></g></g></g></svg>